<svg width="104" height="84" viewBox="0 0 104 84" fill="none" xmlns="http://www.w3.org/2000/svg">
<path d="M103.85 42.8733C103.85 61.0125 84.8691 83.0954 62.9394 83.0954C41.0097 83.0954 15.3416 52.7353 15.3416 34.5961C15.3416 16.4569 41.0097 0.402405 62.9394 0.402405C84.8691 0.402405 103.85 24.7341 103.85 42.8733Z" fill="#FFE381"/>
<path d="M14.9555 64.7662C13.9955 64.7662 13.1715 64.5902 12.4835 64.2382C11.7955 63.8782 11.2675 63.3622 10.8995 62.6902C10.5395 62.0182 10.3595 61.2102 10.3595 60.2662C10.3595 59.3222 10.5395 58.5142 10.8995 57.8422C11.2675 57.1702 11.7955 56.6582 12.4835 56.3062C13.1715 55.9462 13.9955 55.7662 14.9555 55.7662C16.0515 55.7662 17.0235 56.0022 17.8715 56.4742L17.4875 57.9382C16.6635 57.4742 15.8435 57.2422 15.0275 57.2422C14.4195 57.2422 13.8955 57.3622 13.4555 57.6022C13.0155 57.8422 12.6795 58.1902 12.4475 58.6462C12.2155 59.0942 12.0995 59.6342 12.0995 60.2662C12.0995 60.8902 12.2155 61.4302 12.4475 61.8862C12.6795 62.3422 13.0155 62.6902 13.4555 62.9302C13.8955 63.1702 14.4195 63.2902 15.0275 63.2902C15.8275 63.2902 16.6475 63.0582 17.4875 62.5942L17.8715 64.0582C17.0235 64.5302 16.0515 64.7662 14.9555 64.7662ZM21.7303 64.7662C20.7063 64.7662 19.9143 64.4862 19.3543 63.9262C18.8023 63.3662 18.5263 62.5662 18.5263 61.5262C18.5263 60.4862 18.8023 59.6862 19.3543 59.1262C19.9143 58.5662 20.7063 58.2862 21.7303 58.2862C22.7543 58.2862 23.5423 58.5662 24.0943 59.1262C24.6463 59.6862 24.9223 60.4862 24.9223 61.5262C24.9223 62.5662 24.6463 63.3662 24.0943 63.9262C23.5423 64.4862 22.7543 64.7662 21.7303 64.7662ZM21.7303 63.4822C22.2423 63.4822 22.6263 63.3182 22.8823 62.9902C23.1463 62.6622 23.2783 62.1742 23.2783 61.5262C23.2783 60.8782 23.1463 60.3902 22.8823 60.0622C22.6263 59.7342 22.2423 59.5702 21.7303 59.5702C21.2263 59.5702 20.8383 59.7342 20.5663 60.0622C20.3023 60.3902 20.1703 60.8782 20.1703 61.5262C20.1703 62.1742 20.3023 62.6622 20.5663 62.9902C20.8383 63.3182 21.2263 63.4822 21.7303 63.4822ZM26.2488 64.6462V55.8862H27.9288V64.6462H26.2488ZM29.7175 64.6462V55.8862H31.3975V64.6462H29.7175ZM34.6492 64.7662C34.0332 64.7662 33.5452 64.5942 33.1852 64.2502C32.8332 63.9062 32.6572 63.4462 32.6572 62.8702C32.6572 62.1502 32.9372 61.5942 33.4972 61.2022C34.0652 60.8102 34.8692 60.6142 35.9092 60.6142H36.7372C36.7372 60.3342 36.7012 60.1182 36.6292 59.9662C36.5652 59.8142 36.4492 59.7102 36.2812 59.6542C36.1212 59.5902 35.8892 59.5582 35.5852 59.5582C35.1852 59.5582 34.7692 59.6022 34.3372 59.6902C33.9052 59.7702 33.4972 59.8862 33.1132 60.0382L32.9092 58.7662C33.3252 58.6142 33.7852 58.4982 34.2892 58.4182C34.8012 58.3302 35.3092 58.2862 35.8132 58.2862C36.4532 58.2862 36.9572 58.3622 37.3252 58.5142C37.6932 58.6662 37.9612 58.9222 38.1292 59.2822C38.2972 59.6342 38.3812 60.1102 38.3812 60.7102V64.6462H36.8092L36.7852 63.9262H36.7732C36.5492 64.1822 36.2412 64.3862 35.8492 64.5382C35.4572 64.6902 35.0572 64.7662 34.6492 64.7662ZM35.2492 63.5182C35.5292 63.5182 35.7812 63.4702 36.0052 63.3742C36.2292 63.2782 36.4052 63.1462 36.5332 62.9782C36.6692 62.8022 36.7372 62.6102 36.7372 62.4022V61.6942H36.1492C35.5012 61.6942 35.0172 61.7782 34.6972 61.9462C34.3772 62.1062 34.2172 62.3582 34.2172 62.7022C34.2172 62.9582 34.3052 63.1582 34.4812 63.3022C34.6652 63.4462 34.9212 63.5182 35.2492 63.5182ZM43.5117 64.7662C43.1037 64.7662 42.7277 64.6942 42.3837 64.5502C42.0397 64.4062 41.7397 64.1942 41.4837 63.9142H41.4597L41.4477 64.6462H39.8757V55.8862H41.5317V59.1382H41.5557C41.7957 58.8502 42.0797 58.6382 42.4077 58.5022C42.7437 58.3582 43.1117 58.2862 43.5117 58.2862C44.3357 58.2862 44.9757 58.5702 45.4317 59.1382C45.8877 59.7062 46.1157 60.5022 46.1157 61.5262C46.1157 62.5502 45.8877 63.3462 45.4317 63.9142C44.9757 64.4822 44.3357 64.7662 43.5117 64.7662ZM43.0197 63.4462C43.4997 63.4462 43.8677 63.2822 44.1237 62.9542C44.3797 62.6182 44.5077 62.1422 44.5077 61.5262C44.5077 60.9102 44.3797 60.4382 44.1237 60.1102C43.8677 59.7742 43.4997 59.6062 43.0197 59.6062C42.7397 59.6062 42.4837 59.6662 42.2517 59.7862C42.0277 59.9062 41.8517 60.0702 41.7237 60.2782C41.5957 60.4782 41.5317 60.7102 41.5317 60.9742V62.0782C41.5317 62.3422 41.5957 62.5782 41.7237 62.7862C41.8517 62.9862 42.0277 63.1462 42.2517 63.2662C42.4837 63.3862 42.7397 63.4462 43.0197 63.4462ZM50.2303 64.7662C49.2063 64.7662 48.4143 64.4862 47.8543 63.9262C47.3023 63.3662 47.0263 62.5662 47.0263 61.5262C47.0263 60.4862 47.3023 59.6862 47.8543 59.1262C48.4143 58.5662 49.2063 58.2862 50.2303 58.2862C51.2543 58.2862 52.0423 58.5662 52.5943 59.1262C53.1463 59.6862 53.4223 60.4862 53.4223 61.5262C53.4223 62.5662 53.1463 63.3662 52.5943 63.9262C52.0423 64.4862 51.2543 64.7662 50.2303 64.7662ZM50.2303 63.4822C50.7423 63.4822 51.1263 63.3182 51.3823 62.9902C51.6463 62.6622 51.7783 62.1742 51.7783 61.5262C51.7783 60.8782 51.6463 60.3902 51.3823 60.0622C51.1263 59.7342 50.7423 59.5702 50.2303 59.5702C49.7263 59.5702 49.3383 59.7342 49.0663 60.0622C48.8023 60.3902 48.6703 60.8782 48.6703 61.5262C48.6703 62.1742 48.8023 62.6622 49.0663 62.9902C49.3383 63.3182 49.7263 63.4822 50.2303 63.4822ZM54.6648 64.6462V58.4062H56.2488L56.2608 59.5702H56.2968C56.5048 59.2902 56.7488 59.0582 57.0288 58.8742C57.3168 58.6822 57.6288 58.5382 57.9648 58.4422C58.3088 58.3382 58.6608 58.2862 59.0208 58.2862V59.6902C58.5248 59.6902 58.0728 59.7822 57.6648 59.9662C57.2568 60.1502 56.9328 60.4022 56.6928 60.7222C56.4528 61.0342 56.3328 61.3822 56.3328 61.7662V64.6462H54.6648ZM61.4851 64.7662C60.8691 64.7662 60.3811 64.5942 60.0211 64.2502C59.6691 63.9062 59.4931 63.4462 59.4931 62.8702C59.4931 62.1502 59.7731 61.5942 60.3331 61.2022C60.9011 60.8102 61.7051 60.6142 62.7451 60.6142H63.5731C63.5731 60.3342 63.5371 60.1182 63.4651 59.9662C63.4011 59.8142 63.2851 59.7102 63.1171 59.6542C62.9571 59.5902 62.7251 59.5582 62.4211 59.5582C62.0211 59.5582 61.6051 59.6022 61.1731 59.6902C60.7411 59.7702 60.3331 59.8862 59.9491 60.0382L59.7451 58.7662C60.1611 58.6142 60.6211 58.4982 61.1251 58.4182C61.6371 58.3302 62.1451 58.2862 62.6491 58.2862C63.2891 58.2862 63.7931 58.3622 64.1611 58.5142C64.5291 58.6662 64.7971 58.9222 64.9651 59.2822C65.1331 59.6342 65.2171 60.1102 65.2171 60.7102V64.6462H63.6451L63.6211 63.9262H63.6091C63.3851 64.1822 63.0771 64.3862 62.6851 64.5382C62.2931 64.6902 61.8931 64.7662 61.4851 64.7662ZM62.0851 63.5182C62.3651 63.5182 62.6171 63.4702 62.8411 63.3742C63.0651 63.2782 63.2411 63.1462 63.3691 62.9782C63.5051 62.8022 63.5731 62.6102 63.5731 62.4022V61.6942H62.9851C62.3371 61.6942 61.8531 61.7782 61.5331 61.9462C61.2131 62.1062 61.0531 62.3582 61.0531 62.7022C61.0531 62.9582 61.1411 63.1582 61.3171 63.3022C61.5011 63.4462 61.7571 63.5182 62.0851 63.5182ZM69.3682 64.7662C68.6162 64.7662 68.0722 64.6142 67.7362 64.3102C67.4082 64.0062 67.2442 63.5062 67.2442 62.8102V59.6902H65.8882V58.4062H67.2442V56.3662H68.9002V58.4062H70.9282V59.6902H68.9002V62.4022C68.9002 62.7782 68.9602 63.0422 69.0802 63.1942C69.2002 63.3382 69.4162 63.4102 69.7282 63.4102C69.8962 63.4102 70.0722 63.3942 70.2562 63.3622C70.4482 63.3302 70.6242 63.2862 70.7842 63.2302L70.9162 64.5382C70.6442 64.6182 70.3842 64.6742 70.1362 64.7062C69.8882 64.7462 69.6322 64.7662 69.3682 64.7662ZM75.2683 64.7662C74.1483 64.7662 73.2843 64.4862 72.6763 63.9262C72.0763 63.3662 71.7763 62.5662 71.7763 61.5262C71.7763 60.5182 72.0523 59.7262 72.6043 59.1502C73.1563 58.5742 73.9163 58.2862 74.8843 58.2862C75.8203 58.2862 76.5403 58.5582 77.0443 59.1022C77.5563 59.6462 77.8123 60.4182 77.8123 61.4182C77.8123 61.5302 77.8083 61.6582 77.8003 61.8022C77.8003 61.9462 77.7963 62.0542 77.7883 62.1262H72.7003V60.9862H76.5043L76.2763 61.3342C76.2763 60.7102 76.1603 60.2462 75.9283 59.9422C75.7043 59.6382 75.3563 59.4862 74.8843 59.4862C74.3883 59.4862 74.0163 59.6462 73.7683 59.9662C73.5203 60.2782 73.3963 60.7462 73.3963 61.3702V61.8502C73.3963 62.4102 73.5443 62.8222 73.8403 63.0862C74.1363 63.3502 74.5883 63.4822 75.1963 63.4822C75.5403 63.4822 75.9043 63.4502 76.2883 63.3862C76.6723 63.3222 77.0123 63.2342 77.3083 63.1222L77.5003 64.3822C77.2043 64.5022 76.8563 64.5942 76.4563 64.6582C76.0643 64.7302 75.6683 64.7662 75.2683 64.7662Z" fill="black"/>
</svg>
