<svg width="88" height="81" viewBox="0 0 88 81" fill="none" xmlns="http://www.w3.org/2000/svg">
<path d="M82.3682 42.9369C82.3682 61.0761 71.3538 71.2959 50.7828 80.0188C19.8223 86.2992 0.547119 61.0761 0.547119 42.9369C0.547119 24.7977 18.3478 0.466003 40.2775 0.466003C62.2073 0.466003 82.3682 24.7977 82.3682 42.9369Z" fill="#3D39F9"/>
<path d="M36.0713 62.9944C35.1214 62.8555 34.3383 62.5632 33.7218 62.1176C33.1069 61.6641 32.6787 61.0804 32.4374 60.3665C32.204 59.6537 32.1736 58.8332 32.3461 57.9051C32.5186 56.977 32.8443 56.2087 33.3234 55.6001C33.8103 54.9927 34.4263 54.5657 35.1714 54.3192C35.9179 54.0648 36.7662 54.007 37.7161 54.146C38.8005 54.3046 39.7192 54.6772 40.472 55.264L39.8245 56.6478C39.094 56.0723 38.325 55.7256 37.5176 55.6075C36.916 55.5195 36.3756 55.5617 35.8963 55.734C35.4171 55.9063 35.021 56.1998 34.7081 56.6146C34.3967 57.0214 34.1833 57.5356 34.0678 58.1569C33.9537 58.7704 33.9698 59.3181 34.116 59.8C34.2623 60.2819 34.5311 60.6726 34.9226 60.9723C35.3142 61.2719 35.8107 61.4657 36.4123 61.5537C37.2039 61.6694 38.0577 61.56 38.9736 61.2254L39.086 62.7203C38.1607 63.0616 37.1558 63.153 36.0713 62.9944ZM42.7749 63.9747C41.7616 63.8265 41.0292 63.4367 40.5774 62.8051C40.1335 62.1746 40.0066 61.3481 40.1967 60.3257C40.3868 59.3032 40.806 58.5566 41.4546 58.0859C42.111 57.6164 42.9459 57.4557 43.9591 57.6038C44.9723 57.752 45.7008 58.1413 46.1447 58.7718C46.5885 59.4022 46.7154 60.2287 46.5254 61.2512C46.3353 62.2737 45.916 63.0202 45.2675 63.4909C44.619 63.9616 43.7881 64.1229 42.7749 63.9747ZM43.0095 62.7123C43.5161 62.7864 43.9261 62.6808 44.2393 62.3953C44.5605 62.111 44.7803 61.6504 44.8987 61.0133C45.0171 60.3762 44.9757 59.8773 44.7744 59.5166C44.581 59.1571 44.231 58.9403 43.7244 58.8662C43.2257 58.7933 42.8118 58.8984 42.4828 59.1815C42.1616 59.4658 41.9418 59.9265 41.8234 60.5636C41.705 61.2006 41.7464 61.6995 41.9477 62.0602C42.1569 62.422 42.5108 62.6394 43.0095 62.7123ZM47.1846 64.4984L48.3249 58.3635L49.8804 58.591L49.7585 59.3124L49.7823 59.3158C50.0882 59.0697 50.4198 58.9041 50.7771 58.8191C51.1438 58.7273 51.5488 58.7138 51.9921 58.7786C52.7362 58.8874 53.2451 59.1678 53.5188 59.6199C53.8019 60.0653 53.8638 60.7166 53.7045 61.5739L53.0027 65.3493L51.376 65.1114L52.0186 61.6546C52.1136 61.1433 52.0952 60.7609 51.9635 60.5074C51.8332 60.2459 51.5781 60.0874 51.1981 60.0319C50.9131 59.9902 50.6489 60.0122 50.4053 60.0977C50.1632 60.1754 49.9605 60.3033 49.7973 60.4814C49.6435 60.6528 49.5425 60.8683 49.4942 61.1279L48.8232 64.738L47.1846 64.4984ZM56.6288 66.0007C56.3517 65.9602 56.0586 65.8971 55.7492 65.8115C55.4464 65.7349 55.1583 65.6443 54.885 65.5397C54.6132 65.4272 54.3785 65.3121 54.1808 65.1943L54.613 63.9851C54.9681 64.1744 55.3132 64.3298 55.6483 64.4516C55.9914 64.5745 56.337 64.6614 56.6853 64.7123C57.0811 64.7702 57.3796 64.7613 57.5806 64.6857C57.7817 64.6101 57.902 64.4661 57.9414 64.2537C57.9648 64.1279 57.9522 64.021 57.9035 63.9331C57.8548 63.8451 57.7531 63.7576 57.5986 63.6703C57.4534 63.5764 57.2403 63.4766 56.9591 63.3708C56.4759 63.1709 56.0675 62.9617 55.7341 62.7433C55.4101 62.5181 55.1764 62.2658 55.0333 61.9864C54.8901 61.7069 54.8521 61.3863 54.9193 61.0245C55.0275 60.4424 55.331 60.0344 55.8299 59.8003C56.3287 59.5663 57.0016 59.5112 57.8486 59.635C58.2365 59.6918 58.6304 59.7817 59.0303 59.9048C59.4382 60.0291 59.8132 60.1768 60.1554 60.3481L59.7233 61.5573C59.3969 61.3884 59.0766 61.2527 58.7622 61.1502C58.4479 61.0477 58.1364 60.9738 57.8277 60.9287C57.4319 60.8708 57.1303 60.8752 56.9227 60.9418C56.7167 61.0005 56.5961 61.1242 56.561 61.313C56.5405 61.4231 56.5547 61.5221 56.6034 61.6101C56.6521 61.698 56.7497 61.785 56.8964 61.871C57.043 61.9571 57.2529 62.0524 57.5262 62.157C57.8822 62.298 58.1996 62.4494 58.4784 62.6114C58.7573 62.7734 58.9883 62.9526 59.1713 63.149C59.3558 63.3375 59.4837 63.5461 59.555 63.7747C59.6343 64.0044 59.6484 64.2569 59.5972 64.5322C59.527 64.9097 59.3587 65.2244 59.0924 65.4763C58.8275 65.7204 58.4833 65.8882 58.0597 65.9797C57.644 66.0724 57.1671 66.0794 56.6288 66.0007ZM61.9132 59.3448L62.1917 57.8465L63.854 58.0896L63.5755 59.5879L61.9132 59.3448ZM60.5908 66.4589L61.7158 60.4066L63.3782 60.6497L62.2532 66.702L60.5908 66.4589ZM66.1492 67.393C65.3259 67.2726 64.7406 66.9002 64.3932 66.2758C64.0458 65.6513 63.9657 64.8358 64.1528 63.829C64.34 62.8222 64.711 62.0726 65.266 61.5802C65.821 61.0877 66.5102 60.9017 67.3334 61.0221C67.7371 61.0811 68.0841 61.2046 68.3744 61.3925C68.6741 61.5736 68.9203 61.8238 69.1131 62.1428L69.1369 62.1463L69.7312 58.949L71.3578 59.1869L69.757 67.7994L68.2134 67.5737L68.3234 66.8505L68.2997 66.847C68.0031 67.0864 67.6715 67.252 67.3048 67.3438C66.9381 67.4356 66.5529 67.452 66.1492 67.393ZM66.8654 66.1647C67.1503 66.2063 67.4146 66.1844 67.6582 66.0988C67.9017 66.0133 68.1051 65.8814 68.2683 65.7033C68.4409 65.5185 68.5513 65.2963 68.5996 65.0367L68.8013 63.9513C68.8496 63.6918 68.8247 63.4539 68.7267 63.2375C68.638 63.0145 68.4939 62.8278 68.2941 62.6774C68.0944 62.527 67.8521 62.431 67.5671 62.3893C67.1001 62.321 66.7092 62.4335 66.3945 62.7268C66.0813 63.0123 65.8683 63.4578 65.7558 64.0634C65.6432 64.669 65.6829 65.1555 65.8748 65.5229C66.0681 65.8825 66.3983 66.0964 66.8654 66.1647ZM74.437 68.605C73.3288 68.4429 72.5251 68.0426 72.0258 67.4041C71.5345 66.7667 71.3838 65.9367 71.5739 64.9143C71.7581 63.9232 72.1759 63.1845 72.8274 62.6981C73.4788 62.2117 74.2835 62.0385 75.2413 62.1785C76.1674 62.314 76.8301 62.6856 77.2294 63.2934C77.6366 63.9023 77.7488 64.6983 77.5661 65.6815C77.5456 65.7916 77.5183 65.9169 77.4841 66.0573C77.4577 66.1989 77.434 66.3045 77.413 66.3741L72.3785 65.6379L72.5868 64.5171L76.3508 65.0675L76.0616 65.3766C76.1757 64.7631 76.1457 64.2902 75.9717 63.9577C75.8056 63.6264 75.489 63.4266 75.022 63.3583C74.5312 63.2866 74.1339 63.39 73.83 63.6688C73.5276 63.9396 73.3194 64.3818 73.2053 64.9953L73.1176 65.4672C73.0153 66.0178 73.0864 66.4443 73.3311 66.7466C73.5757 67.049 73.9988 67.2442 74.6004 67.3322C74.9408 67.382 75.3068 67.4032 75.6985 67.3958C76.0901 67.3885 76.4426 67.3511 76.756 67.2839L76.7157 68.5504C76.4009 68.6256 76.0398 68.6657 75.6323 68.6707C75.2312 68.6848 74.8328 68.6629 74.437 68.605ZM78.2023 69.0344L79.3427 62.8995L80.91 63.1287L80.7092 64.2749L80.7448 64.2801C81.0018 64.0349 81.2856 63.8421 81.5963 63.7017C81.9163 63.5546 82.2514 63.4582 82.6014 63.4124C82.9608 63.36 83.3186 63.3598 83.6748 63.4119L83.4182 64.7922C82.9274 64.7204 82.4634 64.7455 82.026 64.8674C81.5887 64.9892 81.222 65.1901 80.9261 65.47C80.6316 65.742 80.4493 66.0668 80.3791 66.4443L79.8528 69.2758L78.2023 69.0344Z" fill="black"/>
</svg>
