<svg width="93" height="73" viewBox="0 0 93 73" fill="none" xmlns="http://www.w3.org/2000/svg">
<path d="M82.6477 35.4926C82.6477 53.6318 72.9921 72.5744 51.0624 72.5744C29.1327 72.5744 0.82666 53.6318 0.82666 35.4926C0.82666 17.3534 19.8075 0 41.7372 0C63.6669 0 82.6477 17.3534 82.6477 35.4926Z" fill="#3D39F9"/>
<path d="M45.123 20.4005C44.163 20.4005 43.339 20.2245 42.651 19.8725C41.963 19.5125 41.435 18.9965 41.067 18.3245C40.707 17.6525 40.527 16.8445 40.527 15.9005C40.527 14.9565 40.707 14.1485 41.067 13.4765C41.435 12.8045 41.963 12.2925 42.651 11.9405C43.339 11.5805 44.163 11.4005 45.123 11.4005C46.219 11.4005 47.191 11.6365 48.039 12.1085L47.655 13.5725C46.831 13.1085 46.011 12.8765 45.195 12.8765C44.587 12.8765 44.063 12.9965 43.623 13.2365C43.183 13.4765 42.847 13.8245 42.615 14.2805C42.383 14.7285 42.267 15.2685 42.267 15.9005C42.267 16.5245 42.383 17.0645 42.615 17.5205C42.847 17.9765 43.183 18.3245 43.623 18.5645C44.063 18.8045 44.587 18.9245 45.195 18.9245C45.995 18.9245 46.815 18.6925 47.655 18.2285L48.039 19.6925C47.191 20.1645 46.219 20.4005 45.123 20.4005ZM51.8978 20.4005C50.8738 20.4005 50.0818 20.1205 49.5218 19.5605C48.9698 19.0005 48.6938 18.2005 48.6938 17.1605C48.6938 16.1205 48.9698 15.3205 49.5218 14.7605C50.0818 14.2005 50.8738 13.9205 51.8978 13.9205C52.9218 13.9205 53.7098 14.2005 54.2618 14.7605C54.8138 15.3205 55.0898 16.1205 55.0898 17.1605C55.0898 18.2005 54.8138 19.0005 54.2618 19.5605C53.7098 20.1205 52.9218 20.4005 51.8978 20.4005ZM51.8978 19.1165C52.4098 19.1165 52.7938 18.9525 53.0498 18.6245C53.3138 18.2965 53.4458 17.8085 53.4458 17.1605C53.4458 16.5125 53.3138 16.0245 53.0498 15.6965C52.7938 15.3685 52.4098 15.2045 51.8978 15.2045C51.3938 15.2045 51.0058 15.3685 50.7338 15.6965C50.4698 16.0245 50.3378 16.5125 50.3378 17.1605C50.3378 17.8085 50.4698 18.2965 50.7338 18.6245C51.0058 18.9525 51.3938 19.1165 51.8978 19.1165ZM56.3323 20.2805V14.0405H57.9043L57.9163 14.7725H57.9403C58.1963 14.4845 58.4923 14.2725 58.8283 14.1365C59.1723 13.9925 59.5683 13.9205 60.0163 13.9205C60.7683 13.9205 61.3203 14.1245 61.6723 14.5325C62.0323 14.9325 62.2123 15.5685 62.2123 16.4405V20.2805H60.5683V16.7645C60.5683 16.2445 60.4803 15.8685 60.3043 15.6365C60.1283 15.3965 59.8483 15.2765 59.4643 15.2765C59.1763 15.2765 58.9203 15.3365 58.6963 15.4565C58.4723 15.5685 58.2963 15.7245 58.1683 15.9245C58.0483 16.1165 57.9883 16.3445 57.9883 16.6085V20.2805H56.3323ZM66.3716 20.4005C65.6196 20.4005 65.0756 20.2485 64.7396 19.9445C64.4116 19.6405 64.2476 19.1405 64.2476 18.4445V15.3245H62.8916V14.0405H64.2476V12.0005H65.9036V14.0405H67.9316V15.3245H65.9036V18.0365C65.9036 18.4125 65.9636 18.6765 66.0836 18.8285C66.2036 18.9725 66.4196 19.0445 66.7316 19.0445C66.8996 19.0445 67.0756 19.0285 67.2596 18.9965C67.4516 18.9645 67.6276 18.9205 67.7876 18.8645L67.9196 20.1725C67.6476 20.2525 67.3876 20.3085 67.1396 20.3405C66.8916 20.3805 66.6356 20.4005 66.3716 20.4005ZM70.805 20.4005C70.189 20.4005 69.701 20.2285 69.341 19.8845C68.989 19.5405 68.813 19.0805 68.813 18.5045C68.813 17.7845 69.093 17.2285 69.653 16.8365C70.221 16.4445 71.025 16.2485 72.065 16.2485H72.893C72.893 15.9685 72.857 15.7525 72.785 15.6005C72.721 15.4485 72.605 15.3445 72.437 15.2885C72.277 15.2245 72.045 15.1925 71.741 15.1925C71.341 15.1925 70.925 15.2365 70.493 15.3245C70.061 15.4045 69.653 15.5205 69.269 15.6725L69.065 14.4005C69.481 14.2485 69.941 14.1325 70.445 14.0525C70.957 13.9645 71.465 13.9205 71.969 13.9205C72.609 13.9205 73.113 13.9965 73.481 14.1485C73.849 14.3005 74.117 14.5565 74.285 14.9165C74.453 15.2685 74.537 15.7445 74.537 16.3445V20.2805H72.965L72.941 19.5605H72.929C72.705 19.8165 72.397 20.0205 72.005 20.1725C71.613 20.3245 71.213 20.4005 70.805 20.4005ZM71.405 19.1525C71.685 19.1525 71.937 19.1045 72.161 19.0085C72.385 18.9125 72.561 18.7805 72.689 18.6125C72.825 18.4365 72.893 18.2445 72.893 18.0365V17.3285H72.305C71.657 17.3285 71.173 17.4125 70.853 17.5805C70.533 17.7405 70.373 17.9925 70.373 18.3365C70.373 18.5925 70.461 18.7925 70.637 18.9365C70.821 19.0805 71.077 19.1525 71.405 19.1525ZM79.0915 20.4005C78.3635 20.4005 77.7395 20.2725 77.2195 20.0165C76.6995 19.7605 76.3035 19.3925 76.0315 18.9125C75.7595 18.4245 75.6235 17.8405 75.6235 17.1605C75.6235 16.4725 75.7595 15.8885 76.0315 15.4085C76.3035 14.9285 76.6995 14.5605 77.2195 14.3045C77.7395 14.0485 78.3635 13.9205 79.0915 13.9205C79.4595 13.9205 79.8035 13.9565 80.1235 14.0285C80.4435 14.1005 80.7555 14.2165 81.0595 14.3765L80.7955 15.6365C80.5155 15.4845 80.2435 15.3765 79.9795 15.3125C79.7235 15.2405 79.4675 15.2045 79.2115 15.2045C78.6035 15.2045 78.1315 15.3725 77.7955 15.7085C77.4675 16.0445 77.3035 16.5285 77.3035 17.1605C77.3035 17.7845 77.4675 18.2685 77.7955 18.6125C78.1315 18.9485 78.6035 19.1165 79.2115 19.1165C79.4675 19.1165 79.7235 19.0845 79.9795 19.0205C80.2435 18.9485 80.5155 18.8365 80.7955 18.6845L81.0595 19.9445C80.7555 20.1045 80.4435 20.2205 80.1235 20.2925C79.8035 20.3645 79.4595 20.4005 79.0915 20.4005ZM85.3326 20.4005C84.5806 20.4005 84.0366 20.2485 83.7006 19.9445C83.3726 19.6405 83.2086 19.1405 83.2086 18.4445V15.3245H81.8526V14.0405H83.2086V12.0005H84.8646V14.0405H86.8926V15.3245H84.8646V18.0365C84.8646 18.4125 84.9246 18.6765 85.0446 18.8285C85.1646 18.9725 85.3806 19.0445 85.6926 19.0445C85.8606 19.0445 86.0366 19.0285 86.2206 18.9965C86.4126 18.9645 86.5886 18.9205 86.7486 18.8645L86.8806 20.1725C86.6086 20.2525 86.3486 20.3085 86.1006 20.3405C85.8526 20.3805 85.5966 20.4005 85.3326 20.4005Z" fill="black"/>
</svg>
