<svg width="190" height="190" viewBox="0 0 190 190" fill="none" xmlns="http://www.w3.org/2000/svg">
<rect width="190" height="190" rx="95" fill="#7342FF"/>
<rect width="190" height="190" rx="95" fill="url(#paint0_linear_48_561)"/>
<mask id="mask0_48_561" style="mask-type:alpha" maskUnits="userSpaceOnUse" x="0" y="0" width="190" height="190">
<rect width="190" height="190" rx="95" fill="#D9D9D9"/>
</mask>
<g mask="url(#mask0_48_561)">
</g>
<ellipse cx="94.6518" cy="95.916" rx="38.6518" ry="31.4046" fill="#F1F0FF"/>
<path d="M100.791 79.7891C95.1634 79.7891 89.5356 79.7603 83.9085 79.7891C80.3888 79.8072 71.7519 79.0516 77.6102 83.8148C80.8225 86.4267 91.565 94.4724 95.1416 88.6198C98.1473 83.7014 97.1064 73.1397 90.077 71.9974C86.8913 71.4797 86.0411 76.4275 87.7394 78.2957C90.3193 81.1336 98.4582 84.5113 98.518 78.1658C98.5762 71.9935 88.8163 71.8362 84.8825 74.205C82.6957 75.5218 82.8203 79.5649 83.0644 81.6721C83.6222 86.4873 86.9038 89.5214 91.1159 91.5417C94.7778 93.2981 100.159 94.9455 104.297 94.1389C107.923 93.432 106.066 88.0183 105.206 86.0225C102.877 80.6187 98.532 76.1104 92.9339 74.1401C91.1312 73.5056 87.8805 72.6665 87.9342 75.5686C88.0153 79.9488 95.6606 95.0883 101.765 91.4767C106.55 88.6452 108.288 80.3342 109.751 75.5686C110.853 71.9793 112.582 67.6456 112.803 63.816C113.019 60.0652 108.88 70.2647 107.479 73.7505C105.736 78.0832 108.485 77.4847 109.167 73.4259C110.515 65.397 101.136 63.5737 95.726 67.8418C92.463 70.4163 92.6354 84.1752 93.5183 80.1138C93.9285 78.2268 89.6273 70.2597 87.1551 72.387C84.4565 74.709 85.9204 81.1122 89.2978 81.9968C94.417 83.3375 79.9813 76.4527 74.7532 75.6335C72.6813 75.3089 67.1659 74.6707 66.5719 77.971C65.9313 81.5299 71.8152 83.3798 74.1688 84.0746C75.1902 84.3761 85.9922 85.3024 85.9214 85.1784C84.5128 82.7135 80.0628 89.0475 79.8828 90.308C79.4181 93.5607 82.0165 95.9379 85.337 95.4375C88.5104 94.9593 91.1249 87.0614 92.0249 87.0614C92.3954 87.0614 91.9365 87.7971 91.895 88.1652C91.8347 88.7006 91.55 91.2491 91.5704 91.6066C91.8827 97.0719 98.1797 87.0383 98.3232 86.8017C100.945 82.4796 100.972 77.8434 106.505 81.0877C111.046 83.7506 117.797 89.1386 123.581 87.6458C128.152 86.4663 117.323 81.2422 120.01 81.6721C121.038 81.8366 124.039 82.3686 123.127 81.8669C118.336 79.2318 111.341 78.5737 106.115 77.3867C102.151 76.4862 98.1507 75.5638 94.1027 75.1141C92.9251 74.9832 96.4584 75.4152 97.609 75.6984C101.488 76.6534 95.1299 76.1526 95.3364 76.5426C96.4501 78.6463 101.377 77.1319 102.154 79.6593C102.528 80.8732 99.3821 80.7181 100.791 82.1266" stroke="#100E5F" stroke-width="5" stroke-linecap="round"/>
<defs>
<linearGradient id="paint0_linear_48_561" x1="95" y1="0" x2="95" y2="190" gradientUnits="userSpaceOnUse">
<stop stop-color="#FF24DC" stop-opacity="0.55"/>
<stop offset="1" stop-color="#05261B" stop-opacity="0"/>
</linearGradient>
</defs>
</svg>
